<svg width="191" height="191" viewBox="0 0 191 191" fill="none" xmlns="http://www.w3.org/2000/svg">
<rect width="191" height="191" fill="#fff"/>
<path d="M15.0522 111.199C16.6522 155.999 68.0522 170.199 93.5522 171.699C105.81 171.54 123.921 168.59 139.5 160.367C114.772 162.049 97.0905 157.13 85.0522 148.269C103.781 149.517 111.246 147.085 119.832 134.652C115.786 140.306 107.786 144.543 95.0522 144.699C62.9212 145.091 62.1213 115.257 73.0522 108.699H63.9861H55.0522C45.8522 108.699 43.2189 96.0321 43.0522 89.6987H24.5522C21.5704 89.6987 19.4576 88.7268 17.9936 87.3868C15.8338 94.56 14.741 102.486 15.0522 111.199Z" fill="#1A4D10"/>
<path d="M48.0522 20.1988C40.5522 22.1988 24.5522 26.6987 24.5522 33.6987C24.5522 35.3588 24.4116 37.6375 24.2571 40.1414C23.7601 48.1957 23.1194 58.5802 26.5522 58.1987C28.2526 58.0098 33.4515 57.1783 39.0461 54.8679C41.1977 53.9794 43.4078 52.8721 45.5 51.4986C51.9539 44.7984 52.5569 29 48.0522 20.1988Z" fill="#1A4D10"/>
<path d="M85.0522 104.951C87.6439 104.465 90.4793 104.199 93.5522 104.199C95.5234 104.162 97.0712 104.168 99.0184 104.18C99.1482 104.18 99.2802 104.181 99.4138 104.182C100.7 104.19 102.174 104.199 104.052 104.199C103.386 98.8738 98.3522 89.6987 93.5522 89.6987C88.6636 89.6987 87.4261 95.0095 86.0537 100.9C85.7417 102.239 85.4227 103.608 85.0522 104.951Z" fill="#1A4D10"/>
<path d="M162.552 89.6987H144.552C145.219 96.0321 143.452 108.699 131.052 108.699H114.052C116.673 110.399 118.769 112.585 120.277 115.039C122.684 115.026 127.8 115 129 115C143.8 115 147.833 102 148 95.5H169.246C168.873 93.353 168.425 91.2704 167.907 89.2508C166.425 89.5356 164.656 89.6987 162.552 89.6987Z" fill="#1A4D10"/>
<path d="M152.547 57C154.665 59.6212 156.583 61.4539 158.052 61.6987C159.992 62.0221 161.41 60.5681 162.439 58.1987C159.497 58.7169 156.4 52.8636 152.746 45.9568C147.947 36.886 142.187 25.9981 134.552 25.339C131.059 28.2667 128.958 33.9753 127.577 40.7112C127.182 42.6368 126.845 44.6462 126.552 46.6987C125.517 49.633 125.458 55.1011 133.5 53.5C138.943 52.4163 142.462 55.1498 145.419 57.4466C147.922 59.3916 150.023 61.0233 152.547 59.7584V57Z" fill="#1A4D10"/>
<path d="M165.052 39.1987C165.052 31.6987 154.552 26.6987 143.552 23.6987C139.806 22.6771 136.872 23.395 134.552 25.339C142.187 25.9981 147.947 36.886 152.746 45.9568C156.4 52.8636 159.497 58.7169 162.439 58.1987C164.594 53.2404 165.052 44.2737 165.052 39.1987Z" fill="#5C9F4E"/>
<path d="M103.552 109.699C111.052 109.699 124.052 129.699 107.052 136.699C94.9959 141.663 96.0522 109.699 103.552 109.699Z" fill="#1A4D10"/>
<path d="M82.5522 109.699C90.5522 109.699 98.5522 142.199 82.5522 136.699C66.5522 131.199 74.5522 109.699 82.5522 109.699Z" fill="#1A4D10"/>
<path fill-rule="evenodd" clip-rule="evenodd" d="M129 115C127.8 115 122.684 115.026 120.277 115.039C123.834 120.827 124.113 128.103 120.277 134C120.128 134.22 119.98 134.438 119.832 134.652C111.246 147.085 103.781 149.517 85.0522 148.269C97.0905 157.13 114.772 162.049 139.5 160.367C156.542 151.372 170.552 136.066 170.552 111.199C170.552 105.62 170.095 100.393 169.246 95.5H148C147.833 102 143.8 115 129 115ZM48.0522 20.1988C54.6917 18.4283 60.5475 28.8051 64.9258 38.4942C65.4933 39.7499 66.0359 40.9941 66.5522 42.1988C63.6044 47.7279 61 42.1988 56.4235 31.6988C56.5407 37.0808 55.0003 41.3981 52.5569 44.8542C50.6392 47.5668 48.1653 49.7487 45.5 51.4986C51.9539 44.7984 52.5569 29 48.0522 20.1988Z" fill="#5C9F4E"/>
<path fill-rule="evenodd" clip-rule="evenodd" d="M73.0522 108.699C62.1213 115.257 62.9212 145.091 95.0522 144.699C107.786 144.543 115.786 140.306 119.832 134.652C119.98 134.438 120.128 134.22 120.277 134C124.113 128.103 123.834 120.827 120.277 115.039C118.769 112.585 116.673 110.399 114.052 108.699C113.689 108.463 113.281 108.152 112.823 107.803C110.896 106.335 108.093 104.199 104.052 104.199C102.174 104.199 100.7 104.19 99.4138 104.182L99.0184 104.18C97.0712 104.168 95.5234 104.162 93.5522 104.199C90.4793 104.199 87.6439 104.465 85.0522 104.951C84.3122 105.09 83.6097 105.203 82.9256 105.313C79.8492 105.809 77.1426 106.245 73.0522 108.699ZM103.552 109.699C111.052 109.699 124.052 129.699 107.052 136.699C94.9959 141.663 96.0522 109.699 103.552 109.699ZM82.5522 109.699C90.5522 109.699 98.5522 142.199 82.5522 136.699C66.5522 131.199 74.5522 109.699 82.5522 109.699Z" fill="#5C9F4E"/>
<path fill-rule="evenodd" clip-rule="evenodd" d="M162.552 89.6987H144.552C145.219 96.0321 143.452 108.699 131.052 108.699H114.052C113.689 108.463 113.281 108.152 112.823 107.803C110.896 106.335 108.093 104.199 104.052 104.199C103.386 98.8738 98.3522 89.6987 93.5522 89.6987C88.6636 89.6987 87.4261 95.0095 86.0537 100.9C85.7417 102.239 85.4227 103.608 85.0522 104.951C84.3122 105.09 83.6097 105.203 82.9256 105.313C79.8492 105.809 77.1426 106.245 73.0522 108.699H63.9861H55.0522C45.8522 108.699 43.2189 96.0321 43.0522 89.6987H24.5522C21.5704 89.6987 19.4576 88.7268 17.9936 87.3868C15.9225 85.4911 15.1498 82.8587 15.0522 81.1987H20.1894H65.8517H165.359H174.552C175.521 83.5513 175.157 87.8572 167.907 89.2508C166.425 89.5356 164.656 89.6987 162.552 89.6987ZM76.5 89.6987H65.9861L57.5 105.313H68.5L76.5 89.6987Z" fill="black"/>
<path d="M134.5 89.6987H123.986L115.5 105.313H126.5L134.5 89.6987Z" fill="white"/>
<path d="M65.9861 89.6987H76.5L68.5 105.313H57.5L65.9861 89.6987Z" fill="white"/>
<path d="M126.552 46.6987C126.845 44.6462 127.182 42.6368 127.577 40.7112C117.919 35.9067 108.134 33.2242 100 32.1905V44H89V35.9489C78.234 47.0581 69.7049 63.681 65.8517 81.1987H165.359C162.191 72.8557 157.751 65.7538 152.547 59.7584C150.023 61.0233 147.922 59.3916 145.419 57.4466C142.462 55.1498 138.943 52.4163 133.5 53.5C125.458 55.1011 125.517 49.633 126.552 46.6987Z" fill="#5C9F4E"/>
<path d="M64.9258 38.4942C65.4933 39.7499 66.0359 40.9941 66.5522 42.1988C63.6044 47.7279 61 42.1988 56.4235 31.6988C56.5407 37.0808 55.0003 41.3981 52.5569 44.8542C50.6392 47.5668 48.1653 49.7487 45.5 51.4986C43.4078 52.8721 41.1977 53.9794 39.0461 54.8679C31.2472 61.902 24.527 70.6352 20.1894 81.1987H65.8517C69.7049 63.681 78.234 47.0581 89 35.9489V44H100V32.1905C97.706 31.899 95.9913 32.5398 94 32.5C92.5823 32.5 90.6113 31.7775 89 31.9366C82.1295 32.6151 73.6567 34.7559 64.9258 38.4942Z" fill="#1A4D10"/>
<path d="M67.5522 42.1988C67.0359 40.9941 66.4933 39.7499 65.9258 38.4942M57.0522 27.6987C58.2189 34.9904 56.5782 40.5807 53.5569 44.8542C50.1339 49.696 44.9386 52.8475 40.0461 54.8679M127.552 46.6987C127.845 44.6462 128.182 42.6368 128.577 40.7112M135.552 33.6987C138.573 33.3211 147.012 48.9131 153.547 57M115.052 108.699C130.124 118.478 127.843 144.311 96.0522 144.699C63.9212 145.091 63.1213 115.257 74.0522 108.699M115.052 108.699C117.139 108.699 119.652 108.699 132.052 108.699C144.452 108.699 146.219 96.0321 145.552 89.6987C146.386 89.6987 151.152 89.6987 163.552 89.6987C165.656 89.6987 167.425 89.5356 168.907 89.2508M115.052 108.699C113.157 107.469 110.052 104.199 105.052 104.199M74.0522 108.699C71.3448 108.699 65.2522 108.699 56.0522 108.699C46.8522 108.699 44.2189 96.0321 44.0522 89.6987C40.8855 89.6987 32.7522 89.6987 25.5522 89.6987C22.5704 89.6987 20.4576 88.7268 18.9936 87.3868M74.0522 108.699C79.0522 105.699 81.9846 105.715 86.0522 104.951M86.0522 104.951C88.6439 104.465 91.4793 104.199 94.5522 104.199C97.9203 104.135 100.052 104.199 105.052 104.199M86.0522 104.951C88.0522 97.6987 88.5522 89.6987 94.5522 89.6987C99.3522 89.6987 104.386 98.8738 105.052 104.199M153.547 57C155.665 59.6212 157.583 61.4539 159.052 61.6987C165.052 62.6987 166.052 46.6987 166.052 39.1987C166.052 31.6987 155.552 26.6987 144.552 23.6987C135.165 21.1385 130.875 29.5026 128.577 40.7112M153.547 57V59.7584C158.751 65.7538 163.191 72.8557 166.359 81.1987M128.577 40.7112C118.52 35.7081 108.325 33.0061 100 32.0708M40.0461 54.8679C34.4515 57.1783 29.2526 58.0098 27.5522 58.1987C23.0522 58.6987 25.5522 40.6987 25.5522 33.6987C25.5522 26.6987 41.5522 22.1988 49.0522 20.1988C55.6917 18.4283 61.5475 28.8051 65.9258 38.4942M40.0461 54.8679C32.2472 61.902 25.527 70.6352 21.1894 81.1987M65.9258 38.4942C74.2377 34.9353 82.3157 32.8242 89 32.0444M21.1894 81.1987H16.0522C16.1498 82.8587 16.9225 85.4911 18.9936 87.3868M21.1894 81.1987H166.359M18.9936 87.3868C16.8338 94.56 15.741 102.486 16.0522 111.199C17.6522 155.999 69.0522 170.199 94.5522 171.699C120.219 171.365 171.552 158.799 171.552 111.199C171.552 103.172 170.606 95.8732 168.907 89.2508M166.359 81.1987H175.552C176.521 83.5513 176.157 87.8572 168.907 89.2508M89 32.0444C90.9836 31.813 92.7922 33 94.5 33C96.1994 33.034 98.0758 31.8546 100 32.0708M89 32.0444V44H100V32.0708M104.552 109.699C112.052 109.699 125.052 129.699 108.052 136.699C95.9959 141.663 97.0522 109.699 104.552 109.699ZM83.5522 109.699C91.5522 109.699 99.5522 142.199 83.5522 136.699C67.5522 131.199 75.5522 109.699 83.5522 109.699Z" stroke="black" stroke-width="2" stroke-linecap="round" stroke-linejoin="round"/>
<path d="M123.497 50.6578C121.869 53.1425 117.926 52.0738 114 49.5C110.074 46.9262 107.651 43.822 109.28 41.3374C110.909 38.8528 117.212 39.5 119.5 41C122.264 42.8121 126.001 46.8386 123.497 50.6578Z" fill="#84C577"/>
</svg>
