<svg width="512" height="512" viewBox="0 0 512 512" fill="none" xmlns="http://www.w3.org/2000/svg">
<g clip-path="url(#clip0_154_979)">
<rect width="512" height="512" rx="100" fill="white"/>
<rect width="512" height="512" fill="#829871"/>
<path fill-rule="evenodd" clip-rule="evenodd" d="M158 215.319L153.333 220.082C139.076 234.63 129.342 253.565 126.327 274.646L124.321 288.667H109C99.9793 288.667 92.6667 295.979 92.6667 305V321.333C92.6667 330.354 99.9793 337.667 109 337.667H138.015L142.89 344.656C149.531 354.178 157.822 362.469 167.344 369.11L174.333 373.985V419.333H207V386.667H305V419.333H337.667V373.985L344.656 369.11C362.706 356.52 376.303 338.028 382.667 316.483L384.856 309.073L385.851 301.385C386.388 297.229 386.667 292.984 386.667 288.667C386.667 234.543 342.791 190.667 288.667 190.667H223.333C212.366 190.667 201.852 192.462 192.048 195.762L178.353 200.371L172.108 187.34C169.332 181.546 164.212 177.127 158 175.28V215.319ZM418.92 299.121C418.976 299.088 419.033 299.055 419.089 299.021C423.89 296.127 427.821 291.991 430.468 287.049C433.116 282.108 434.381 276.544 434.131 270.943C433.881 265.343 432.125 259.914 429.047 255.228C427.612 253.042 425.915 251.057 424 249.31C420.361 245.991 418.394 240.728 420.551 236.3C422.708 231.871 428.112 229.97 432.077 232.893C436.73 236.324 440.759 240.565 443.958 245.436C448.796 252.804 451.558 261.341 451.951 270.147C452.344 278.954 450.355 287.703 446.192 295.473C442.029 303.243 435.847 309.747 428.298 314.298C420.749 318.849 412.112 321.279 403.297 321.332C401.634 321.342 399.977 321.268 398.331 321.11C390.896 346.283 375.028 367.839 354 382.507V419.333C354 428.354 346.687 435.667 337.667 435.667H305C295.979 435.667 288.667 428.354 288.667 419.333V403H223.333V419.333C223.333 428.354 216.021 435.667 207 435.667H174.333C165.313 435.667 158 428.354 158 419.333V382.507C146.899 374.764 137.236 365.101 129.493 354H109C90.9587 354 76.3333 339.375 76.3333 321.333V305C76.3333 286.959 90.9587 272.333 109 272.333H110.158C113.681 247.701 125.056 225.601 141.667 208.65V167.8C141.667 162.388 146.054 158 151.467 158C167.057 158 180.522 167.102 186.838 180.282C198.299 176.424 210.572 174.333 223.333 174.333H288.667C351.309 174.333 402.185 224.711 402.99 287.162C402.997 287.663 403 288.164 403 288.667C403 293.687 402.676 298.631 402.049 303.481C402.428 303.492 402.808 303.497 403.189 303.495C408.729 303.461 414.159 301.951 418.92 299.121ZM256 158C283.062 158 305 136.062 305 109C305 81.938 283.062 60 256 60C228.938 60 207 81.938 207 109C207 136.062 228.938 158 256 158ZM256 141.667C274.041 141.667 288.667 127.041 288.667 109C288.667 90.9587 274.041 76.3333 256 76.3333C237.959 76.3333 223.333 90.9587 223.333 109C223.333 127.041 237.959 141.667 256 141.667Z" fill="#FCFCF6"/>
<path fill-rule="evenodd" clip-rule="evenodd" d="M158 215.319L153.333 220.082C139.076 234.63 129.342 253.565 126.327 274.646L124.321 288.667H109C99.9793 288.667 92.6667 295.979 92.6667 305V321.333C92.6667 330.354 99.9793 337.667 109 337.667H138.015L142.89 344.656C149.531 354.178 157.822 362.469 167.344 369.11L174.333 373.985V419.333H207V386.667H305V419.333H337.667V373.985L344.656 369.11C362.706 356.52 376.303 338.028 382.667 316.483L384.856 309.073L385.851 301.385C386.388 297.229 386.667 292.984 386.667 288.667C386.667 234.543 342.791 190.667 288.667 190.667H223.333C212.366 190.667 201.852 192.462 192.048 195.762L178.353 200.371L172.108 187.34C169.332 181.546 164.212 177.127 158 175.28V215.319ZM166.167 272.333C170.677 272.333 174.333 268.677 174.333 264.167C174.333 259.656 170.677 256 166.167 256C161.656 256 158 259.656 158 264.167C158 268.677 161.656 272.333 166.167 272.333ZM231.5 207C226.99 207 223.333 210.656 223.333 215.167C223.333 219.677 226.99 223.333 231.5 223.333H280.5C285.01 223.333 288.667 219.677 288.667 215.167C288.667 210.656 285.01 207 280.5 207H231.5Z" fill="#FCFCF6"/>
<path d="M256 141.667C274.041 141.667 288.667 127.041 288.667 109C288.667 90.9587 274.041 76.3333 256 76.3333C237.959 76.3333 223.333 90.9587 223.333 109C223.333 127.041 237.959 141.667 256 141.667Z" fill="#FCFCF6"/>
<path d="M174.333 264.167C174.333 268.677 170.677 272.333 166.167 272.333C161.656 272.333 158 268.677 158 264.167C158 259.656 161.656 256 166.167 256C170.677 256 174.333 259.656 174.333 264.167Z" fill="#FCFCF6"/>
<circle cx="156" cy="254" r="20" fill="#829871"/>
<rect x="213" y="192" width="86" height="35" rx="17.5" fill="#829871"/>
</g>
<defs>
<clipPath id="clip0_154_979">
<rect width="512" height="512" rx="100" fill="white"/>
</clipPath>
</defs>
</svg>
