<svg width="376" height="376" viewBox="0 0 376 376" fill="none" xmlns="http://www.w3.org/2000/svg">
<mask id="path-1-inside-1_572_1285" fill="white">
<path fill-rule="evenodd" clip-rule="evenodd" d="M343.089 239.021C343.033 239.055 342.977 239.088 342.92 239.121C338.159 241.951 332.729 243.461 327.189 243.495C326.808 243.497 326.428 243.492 326.049 243.481C326.676 238.631 327 233.687 327 228.667C327 228.164 326.997 227.663 326.99 227.162C326.185 164.711 275.309 114.333 212.667 114.333H147.333C134.572 114.333 122.299 116.424 110.838 120.282C104.522 107.102 91.0575 98 75.4667 98C70.0543 98 65.6667 102.388 65.6667 107.8V148.65C49.0564 165.601 37.6813 187.701 34.1579 212.333H33C14.9587 212.333 0.333344 226.959 0.333344 245V261.333C0.333344 279.375 14.9587 294 33 294H53.4933C61.2364 305.101 70.899 314.764 82 322.507V359.333C82 368.354 89.3127 375.667 98.3333 375.667H131C140.021 375.667 147.333 368.354 147.333 359.333V343H212.667V359.333C212.667 368.354 219.979 375.667 229 375.667H261.667C270.687 375.667 278 368.354 278 359.333V322.507C299.029 307.839 314.896 286.283 322.331 261.11C323.977 261.268 325.634 261.342 327.297 261.332C336.112 261.279 344.749 258.849 352.298 254.298C359.847 249.747 366.029 243.243 370.192 235.473C374.355 227.703 376.344 218.954 375.951 210.147C375.558 201.341 372.796 192.804 367.958 185.436C364.759 180.565 360.73 176.324 356.077 172.893C352.112 169.97 346.708 171.871 344.551 176.3C342.394 180.728 344.361 185.991 348 189.31C349.915 191.057 351.612 193.042 353.047 195.228C356.125 199.914 357.881 205.343 358.131 210.943C358.381 216.544 357.116 222.108 354.468 227.049C351.821 231.991 347.89 236.127 343.089 239.021ZM229 49C229 76.0619 207.062 98 180 98C152.938 98 131 76.0619 131 49C131 21.938 152.938 0 180 0C207.062 0 229 21.938 229 49ZM144 156.5C144 146.835 151.835 139 161.5 139H212.5C222.165 139 230 146.835 230 156.5C230 166.165 222.165 174 212.5 174H161.5C151.835 174 144 166.165 144 156.5ZM107 201C107 212.046 98.0457 221 87 221C75.9543 221 67 212.046 67 201C67 189.954 75.9543 181 87 181C98.0457 181 107 189.954 107 201Z"/>
</mask>
<path fill-rule="evenodd" clip-rule="evenodd" d="M343.089 239.021C343.033 239.055 342.977 239.088 342.92 239.121C338.159 241.951 332.729 243.461 327.189 243.495C326.808 243.497 326.428 243.492 326.049 243.481C326.676 238.631 327 233.687 327 228.667C327 228.164 326.997 227.663 326.99 227.162C326.185 164.711 275.309 114.333 212.667 114.333H147.333C134.572 114.333 122.299 116.424 110.838 120.282C104.522 107.102 91.0575 98 75.4667 98C70.0543 98 65.6667 102.388 65.6667 107.8V148.65C49.0564 165.601 37.6813 187.701 34.1579 212.333H33C14.9587 212.333 0.333344 226.959 0.333344 245V261.333C0.333344 279.375 14.9587 294 33 294H53.4933C61.2364 305.101 70.899 314.764 82 322.507V359.333C82 368.354 89.3127 375.667 98.3333 375.667H131C140.021 375.667 147.333 368.354 147.333 359.333V343H212.667V359.333C212.667 368.354 219.979 375.667 229 375.667H261.667C270.687 375.667 278 368.354 278 359.333V322.507C299.029 307.839 314.896 286.283 322.331 261.11C323.977 261.268 325.634 261.342 327.297 261.332C336.112 261.279 344.749 258.849 352.298 254.298C359.847 249.747 366.029 243.243 370.192 235.473C374.355 227.703 376.344 218.954 375.951 210.147C375.558 201.341 372.796 192.804 367.958 185.436C364.759 180.565 360.73 176.324 356.077 172.893C352.112 169.97 346.708 171.871 344.551 176.3C342.394 180.728 344.361 185.991 348 189.31C349.915 191.057 351.612 193.042 353.047 195.228C356.125 199.914 357.881 205.343 358.131 210.943C358.381 216.544 357.116 222.108 354.468 227.049C351.821 231.991 347.89 236.127 343.089 239.021ZM229 49C229 76.0619 207.062 98 180 98C152.938 98 131 76.0619 131 49C131 21.938 152.938 0 180 0C207.062 0 229 21.938 229 49ZM144 156.5C144 146.835 151.835 139 161.5 139H212.5C222.165 139 230 146.835 230 156.5C230 166.165 222.165 174 212.5 174H161.5C151.835 174 144 166.165 144 156.5ZM107 201C107 212.046 98.0457 221 87 221C75.9543 221 67 212.046 67 201C67 189.954 75.9543 181 87 181C98.0457 181 107 189.954 107 201Z" fill="#829871"/>
<path d="M342.92 239.121L340.877 235.683L340.877 235.683L342.92 239.121ZM343.089 239.021L341.023 235.595L341.023 235.595L343.089 239.021ZM327.189 243.495L327.213 247.495L327.213 247.495L327.189 243.495ZM326.049 243.481L322.082 242.967L321.516 247.344L325.927 247.479L326.049 243.481ZM326.99 227.162L330.99 227.11L330.99 227.11L326.99 227.162ZM110.838 120.282L107.231 122.01L108.76 125.202L112.114 124.073L110.838 120.282ZM65.6667 148.65L68.5236 151.45L69.6667 150.283V148.65H65.6667ZM34.1579 212.333V216.333H37.6264L38.1176 212.9L34.1579 212.333ZM53.4933 294L56.774 291.712L55.5801 290H53.4933V294ZM82 322.507H86V320.42L84.2884 319.226L82 322.507ZM147.333 343V339H143.333V343H147.333ZM212.667 343H216.667V339H212.667V343ZM278 322.507L275.712 319.226L274 320.42V322.507H278ZM322.331 261.11L322.713 257.129L319.43 256.814L318.495 259.977L322.331 261.11ZM327.297 261.332L327.321 265.332L327.321 265.332L327.297 261.332ZM352.298 254.298L354.363 257.723L354.363 257.723L352.298 254.298ZM370.192 235.473L366.666 233.584L366.666 233.584L370.192 235.473ZM375.951 210.147L379.947 209.969L379.947 209.969L375.951 210.147ZM367.958 185.436L364.614 187.632L364.614 187.632L367.958 185.436ZM356.077 172.893L358.451 169.673L358.451 169.673L356.077 172.893ZM344.551 176.3L348.148 178.051L348.148 178.051L344.551 176.3ZM348 189.31L345.305 192.266L345.305 192.266L348 189.31ZM353.047 195.228L356.391 193.032L356.391 193.032L353.047 195.228ZM358.131 210.943L362.127 210.765L362.127 210.765L358.131 210.943ZM354.468 227.049L350.942 225.16L350.942 225.16L354.468 227.049ZM344.964 242.56C345.024 242.524 345.088 242.486 345.154 242.446L341.023 235.595C340.977 235.623 340.929 235.652 340.877 235.683L344.964 242.56ZM327.213 247.495C333.465 247.457 339.592 245.753 344.964 242.56L340.877 235.683C336.727 238.149 331.994 239.465 327.165 239.495L327.213 247.495ZM325.927 247.479C326.355 247.492 326.783 247.497 327.213 247.495L327.165 239.495C326.833 239.497 326.502 239.493 326.171 239.483L325.927 247.479ZM323 228.667C323 233.515 322.688 238.288 322.082 242.967L330.016 243.994C330.665 238.975 331 233.859 331 228.667H323ZM322.991 227.213C322.997 227.697 323 228.182 323 228.667H331C331 228.147 330.997 227.628 330.99 227.11L322.991 227.213ZM212.667 118.333C273.117 118.333 322.213 166.948 322.991 227.213L330.99 227.11C330.156 162.473 277.501 110.333 212.667 110.333V118.333ZM147.333 118.333H212.667V110.333H147.333V118.333ZM112.114 124.073C123.169 120.352 135.011 118.333 147.333 118.333V110.333C134.132 110.333 121.429 112.496 109.562 116.491L112.114 124.073ZM75.4667 102C89.4606 102 101.555 110.166 107.231 122.01L114.445 118.553C107.49 104.038 92.6544 94 75.4667 94V102ZM69.6667 107.8C69.6667 104.597 72.2634 102 75.4667 102V94C67.8451 94 61.6667 100.178 61.6667 107.8H69.6667ZM69.6667 148.65V107.8H61.6667V148.65H69.6667ZM38.1176 212.9C41.5166 189.137 52.4898 167.812 68.5236 151.45L62.8097 145.85C45.623 163.389 33.846 186.264 30.1982 211.767L38.1176 212.9ZM33 216.333H34.1579V208.333H33V216.333ZM4.33334 245C4.33334 229.168 17.1678 216.333 33 216.333V208.333C12.7496 208.333 -3.66666 224.75 -3.66666 245H4.33334ZM4.33334 261.333V245H-3.66666V261.333H4.33334ZM33 290C17.1678 290 4.33334 277.165 4.33334 261.333H-3.66666C-3.66666 281.584 12.7496 298 33 298V290ZM53.4933 290H33V298H53.4933V290ZM84.2884 319.226C73.5741 311.753 64.2475 302.426 56.774 291.712L50.2125 296.288C58.2254 307.776 68.224 317.775 79.7116 325.787L84.2884 319.226ZM86 359.333V322.507H78V359.333H86ZM98.3333 371.667C91.5218 371.667 86 366.145 86 359.333H78C78 370.563 87.1035 379.667 98.3333 379.667V371.667ZM131 371.667H98.3333V379.667H131V371.667ZM143.333 359.333C143.333 366.145 137.812 371.667 131 371.667V379.667C142.23 379.667 151.333 370.563 151.333 359.333H143.333ZM143.333 343V359.333H151.333V343H143.333ZM212.667 339H147.333V347H212.667V339ZM216.667 359.333V343H208.667V359.333H216.667ZM229 371.667C222.188 371.667 216.667 366.145 216.667 359.333H208.667C208.667 370.563 217.77 379.667 229 379.667V371.667ZM261.667 371.667H229V379.667H261.667V371.667ZM274 359.333C274 366.145 268.478 371.667 261.667 371.667V379.667C272.896 379.667 282 370.563 282 359.333H274ZM274 322.507V359.333H282V322.507H274ZM318.495 259.977C311.322 284.262 296.011 305.067 275.712 319.226L280.288 325.787C302.046 310.611 318.469 288.305 326.168 262.243L318.495 259.977ZM327.273 257.332C325.746 257.342 324.224 257.273 322.713 257.129L321.95 265.092C323.73 265.263 325.523 265.343 327.321 265.332L327.273 257.332ZM350.233 250.872C343.3 255.052 335.368 257.283 327.273 257.332L327.321 265.332C336.855 265.275 346.198 262.646 354.363 257.723L350.233 250.872ZM366.666 233.584C362.843 240.72 357.166 246.692 350.233 250.872L354.363 257.723C362.529 252.801 369.215 245.766 373.718 237.362L366.666 233.584ZM371.955 210.326C372.316 218.413 370.489 226.448 366.666 233.584L373.718 237.362C378.221 228.958 380.373 219.494 379.947 209.969L371.955 210.326ZM364.614 187.632C369.058 194.398 371.594 202.238 371.955 210.326L379.947 209.969C379.522 200.444 376.535 191.21 371.301 183.24L364.614 187.632ZM353.703 176.113C357.977 179.263 361.676 183.158 364.614 187.632L371.301 183.24C367.841 177.971 363.483 173.384 358.451 169.673L353.703 176.113ZM348.148 178.051C349.445 175.388 352.159 174.974 353.703 176.113L358.451 169.673C352.065 164.966 343.972 168.354 340.955 174.548L348.148 178.051ZM350.696 186.355C347.848 183.758 347.037 180.332 348.148 178.051L340.955 174.548C337.752 181.124 340.873 188.224 345.305 192.266L350.696 186.355ZM356.391 193.032C354.771 190.566 352.856 188.325 350.696 186.355L345.305 192.266C346.973 193.788 348.453 195.519 349.704 197.423L356.391 193.032ZM362.127 210.765C361.845 204.445 359.863 198.319 356.391 193.032L349.704 197.423C352.386 201.508 353.917 206.24 354.135 211.122L362.127 210.765ZM357.994 228.938C360.981 223.362 362.409 217.084 362.127 210.765L354.135 211.122C354.353 216.003 353.25 220.853 350.942 225.16L357.994 228.938ZM345.154 242.446C350.571 239.181 355.007 234.514 357.994 228.938L350.942 225.16C348.635 229.467 345.208 233.072 341.023 235.595L345.154 242.446ZM180 102C209.271 102 233 78.2711 233 49H225C225 73.8528 204.853 94 180 94V102ZM127 49C127 78.2711 150.729 102 180 102V94C155.147 94 135 73.8528 135 49H127ZM180 -4C150.729 -4 127 19.7289 127 49H135C135 24.1472 155.147 4 180 4V-4ZM233 49C233 19.7289 209.271 -4 180 -4V4C204.853 4 225 24.1472 225 49H233ZM161.5 135C149.626 135 140 144.626 140 156.5H148C148 149.044 154.044 143 161.5 143V135ZM212.5 135H161.5V143H212.5V135ZM234 156.5C234 144.626 224.374 135 212.5 135V143C219.956 143 226 149.044 226 156.5H234ZM212.5 178C224.374 178 234 168.374 234 156.5H226C226 163.956 219.956 170 212.5 170V178ZM161.5 178H212.5V170H161.5V178ZM140 156.5C140 168.374 149.626 178 161.5 178V170C154.044 170 148 163.956 148 156.5H140ZM87 225C100.255 225 111 214.255 111 201H103C103 209.837 95.8366 217 87 217V225ZM63 201C63 214.255 73.7452 225 87 225V217C78.1634 217 71 209.837 71 201H63ZM87 177C73.7452 177 63 187.745 63 201H71C71 192.163 78.1634 185 87 185V177ZM111 201C111 187.745 100.255 177 87 177V185C95.8366 185 103 192.163 103 201H111Z" fill="white" mask="url(#path-1-inside-1_572_1285)"/>
</svg>
