<svg width="1024" height="1024" viewBox="0 0 1024 1024" fill="none" xmlns="http://www.w3.org/2000/svg">
<g clip-path="url(#clip0_156_968)">
<rect width="1024" height="1024" rx="225" fill="#47743E"/>
<path fill-rule="evenodd" clip-rule="evenodd" d="M316 430.637L306.665 440.163C278.152 469.26 258.684 507.13 252.653 549.292L248.642 577.333H218C199.959 577.333 185.333 591.959 185.333 610V642.667C185.333 660.708 199.959 675.333 218 675.333H276.029L285.779 689.311C299.063 708.355 315.644 724.937 334.688 738.221L348.667 747.971V838.667H414V773.333H610V838.667H675.333V747.971L689.311 738.221C725.412 713.04 752.606 676.056 765.334 632.967L769.712 618.145L771.701 602.77C772.777 594.458 773.333 585.968 773.333 577.333C773.333 469.086 685.581 381.333 577.333 381.333H446.667C424.732 381.333 403.704 384.924 384.097 391.523L356.705 400.743L344.216 374.679C338.664 363.091 328.424 354.254 316 350.559V430.637ZM837.841 598.243C837.953 598.176 838.065 598.109 838.177 598.042C847.779 592.253 855.642 583.981 860.936 574.098C866.231 564.215 868.762 553.087 868.262 541.886C867.761 530.686 864.249 519.827 858.095 510.455C855.224 506.085 851.829 502.113 848 498.621C840.722 491.982 836.789 481.456 841.103 472.599C845.417 463.742 856.224 459.94 864.154 465.786C873.46 472.647 881.517 481.129 887.915 490.872C897.593 505.608 903.116 522.682 903.902 540.295C904.689 557.907 900.71 575.406 892.384 590.946C884.058 606.486 871.695 619.493 856.596 628.595C841.498 637.697 824.223 642.558 806.594 642.665C803.268 642.685 799.954 642.536 796.663 642.221C781.791 692.567 750.057 735.678 708 765.013V838.667C708 856.708 693.375 871.333 675.333 871.333H610C591.959 871.333 577.333 856.708 577.333 838.667V806H446.667V838.667C446.667 856.708 432.041 871.333 414 871.333H348.667C330.625 871.333 316 856.708 316 838.667V765.013C293.798 749.527 274.473 730.202 258.986 708H218C181.917 708 152.667 678.749 152.667 642.667V610C152.667 573.917 181.917 544.667 218 544.667H220.316C227.363 495.401 250.113 451.201 283.333 417.3V335.6C283.333 324.775 292.109 316 302.933 316C334.115 316 361.045 334.204 373.676 360.563C396.598 352.848 421.144 348.667 446.667 348.667H577.333C702.618 348.667 804.369 449.422 805.98 574.324C805.993 575.325 806 576.329 806 577.333C806 587.374 805.353 597.263 804.098 606.961C804.857 606.984 805.617 606.994 806.377 606.989C817.458 606.922 828.319 603.902 837.841 598.243ZM512 316C566.124 316 610 272.124 610 218C610 163.876 566.124 120 512 120C457.876 120 414 163.876 414 218C414 272.124 457.876 316 512 316ZM512 283.333C548.083 283.333 577.333 254.083 577.333 218C577.333 181.917 548.083 152.667 512 152.667C475.917 152.667 446.667 181.917 446.667 218C446.667 254.083 475.917 283.333 512 283.333Z" fill="#FCFCF6"/>
<path d="M348.667 528.333C348.667 537.354 341.354 544.667 332.333 544.667C323.313 544.667 316 537.354 316 528.333C316 519.313 323.313 512 332.333 512C341.354 512 348.667 519.313 348.667 528.333Z" fill="#FCFCF6"/>
<path d="M446.667 430.333C446.667 421.313 453.979 414 463 414H561C570.021 414 577.333 421.313 577.333 430.333C577.333 439.354 570.021 446.667 561 446.667H463C453.979 446.667 446.667 439.354 446.667 430.333Z" fill="#FCFCF6"/>
</g>
<defs>
<clipPath id="clip0_156_968">
<rect width="1024" height="1024" fill="white"/>
</clipPath>
</defs>
</svg>
