<svg width="48" height="48" viewBox="0 0 48 48" fill="none" xmlns="http://www.w3.org/2000/svg">
<g clip-path="url(#clip0_3172_281)">
<rect width="48" height="48" rx="9.375" fill="white"/>
<rect width="48" height="48" fill="#47743E"/>
<g clip-path="url(#clip1_3172_281)">
<path fill-rule="evenodd" clip-rule="evenodd" d="M14.8126 20.1861L14.375 20.6327C13.0385 21.9966 12.1259 23.7717 11.8432 25.7481L11.6552 27.0625H10.2188C9.37312 27.0625 8.68756 27.7481 8.68756 28.5937V30.125C8.68756 30.9707 9.37312 31.6562 10.2188 31.6562H12.9389L13.396 32.3115C14.0186 33.2042 14.7959 33.9814 15.6886 34.6041L16.3438 35.0611V39.3125H19.4063V36.25H28.5938V39.3125H31.6563V35.0611L32.3115 34.6041C34.0037 33.4237 35.2785 31.6901 35.8751 29.6703L36.0803 28.9756L36.1736 28.2548C36.224 27.8652 36.2501 27.4673 36.2501 27.0625C36.2501 21.9884 32.1367 17.875 27.0626 17.875H20.9376C19.9094 17.875 18.9237 18.0433 18.0046 18.3527L16.7206 18.7848L16.1352 17.5631C15.8749 17.0199 15.395 16.6057 14.8126 16.4325V20.1861ZM39.2738 28.0426C39.2791 28.0395 39.2844 28.0364 39.2896 28.0332C39.7397 27.7619 40.1083 27.3741 40.3565 26.9109C40.6047 26.4476 40.7233 25.926 40.6998 25.4009C40.6764 24.8759 40.5117 24.3669 40.2232 23.9276C40.0887 23.7227 39.9295 23.5365 39.7501 23.3728C39.4089 23.0616 39.2245 22.5683 39.4268 22.1531C39.629 21.7379 40.1356 21.5597 40.5073 21.8337C40.9435 22.1553 41.3212 22.5529 41.6211 23.0096C42.0747 23.7004 42.3336 24.5007 42.3705 25.3263C42.4074 26.1519 42.2208 26.9721 41.8306 27.7006C41.4403 28.4291 40.8608 29.0387 40.153 29.4654C39.4453 29.8921 38.6355 30.1199 37.8091 30.1249C37.6533 30.1259 37.4979 30.1189 37.3436 30.1041C36.6465 32.4641 35.159 34.4849 33.1876 35.86V39.3125C33.1876 40.1582 32.502 40.8437 31.6563 40.8437H28.5938C27.7481 40.8437 27.0626 40.1582 27.0626 39.3125V37.7812H20.9376V39.3125C20.9376 40.1582 20.252 40.8437 19.4063 40.8437H16.3438C15.4981 40.8437 14.8126 40.1582 14.8126 39.3125V35.86C13.7718 35.1341 12.866 34.2282 12.1401 33.1875H10.2188C8.52744 33.1875 7.15631 31.8164 7.15631 30.125V28.5937C7.15631 26.9024 8.52744 25.5312 10.2188 25.5312H10.3274C10.6577 23.2219 11.7241 21.15 13.2813 19.5609V15.7312C13.2813 15.2238 13.6926 14.8125 14.2001 14.8125C15.6617 14.8125 16.924 15.6658 17.5161 16.9014C18.5906 16.5398 19.7412 16.3437 20.9376 16.3437H27.0626C32.9353 16.3437 37.7049 21.0666 37.7804 26.9214C37.781 26.9684 37.7813 27.0154 37.7813 27.0625C37.7813 27.5331 37.751 27.9967 37.6922 28.4513C37.7277 28.4524 37.7633 28.4528 37.799 28.4526C38.3184 28.4495 38.8275 28.3079 39.2738 28.0426ZM24.0001 14.8125C26.5371 14.8125 28.5938 12.7558 28.5938 10.2187C28.5938 7.68169 26.5371 5.625 24.0001 5.625C21.463 5.625 19.4063 7.68169 19.4063 10.2187C19.4063 12.7558 21.463 14.8125 24.0001 14.8125ZM24.0001 13.2812C25.6914 13.2812 27.0626 11.9101 27.0626 10.2187C27.0626 8.52738 25.6914 7.15625 24.0001 7.15625C22.3087 7.15625 20.9376 8.52738 20.9376 10.2187C20.9376 11.9101 22.3087 13.2812 24.0001 13.2812Z" fill="#FCFCF6"/>
<path fill-rule="evenodd" clip-rule="evenodd" d="M14.8126 20.1861L14.375 20.6327C13.0385 21.9966 12.1259 23.7717 11.8432 25.7481L11.6552 27.0625H10.2188C9.37312 27.0625 8.68756 27.7481 8.68756 28.5937V30.125C8.68756 30.9707 9.37312 31.6562 10.2188 31.6562H12.9389L13.396 32.3115C14.0186 33.2042 14.7959 33.9814 15.6886 34.6041L16.3438 35.0611V39.3125H19.4063V36.25H28.5938V39.3125H31.6563V35.0611L32.3115 34.6041C34.0037 33.4237 35.2785 31.6901 35.8751 29.6703L36.0803 28.9756L36.1736 28.2548C36.224 27.8652 36.2501 27.4673 36.2501 27.0625C36.2501 21.9884 32.1367 17.875 27.0626 17.875H20.9376C19.9094 17.875 18.9237 18.0433 18.0046 18.3527L16.7206 18.7848L16.1352 17.5631C15.8749 17.0199 15.395 16.6057 14.8126 16.4325V20.1861ZM15.5782 25.5312C16.001 25.5312 16.3438 25.1885 16.3438 24.7656C16.3438 24.3428 16.001 24 15.5782 24C15.1553 24 14.8126 24.3428 14.8126 24.7656C14.8126 25.1885 15.1553 25.5312 15.5782 25.5312ZM21.7032 19.4062C21.2803 19.4062 20.9376 19.749 20.9376 20.1719C20.9376 20.5947 21.2803 20.9375 21.7032 20.9375H26.2969C26.7198 20.9375 27.0626 20.5947 27.0626 20.1719C27.0626 19.749 26.7198 19.4062 26.2969 19.4062H21.7032Z" fill="#FCFCF6"/>
<path d="M24.0001 13.2812C25.6914 13.2812 27.0626 11.9101 27.0626 10.2187C27.0626 8.52738 25.6914 7.15625 24.0001 7.15625C22.3087 7.15625 20.9376 8.52738 20.9376 10.2187C20.9376 11.9101 22.3087 13.2812 24.0001 13.2812Z" fill="#FCFCF6"/>
<path d="M16.3438 24.7656C16.3438 25.1885 16.001 25.5312 15.5782 25.5312C15.1553 25.5312 14.8126 25.1885 14.8126 24.7656C14.8126 24.3428 15.1553 24 15.5782 24C16.001 24 16.3438 24.3428 16.3438 24.7656Z" fill="#FCFCF6"/>
<circle cx="14.625" cy="23.8125" r="1.875" fill="#47743E"/>
<rect x="19.9688" y="18" width="8.0625" height="3.28125" rx="1.64062" fill="#47743E"/>
</g>
</g>
<defs>
<clipPath id="clip0_3172_281">
<rect width="48" height="48" rx="9.375" fill="white"/>
</clipPath>
<clipPath id="clip1_3172_281">
<rect width="36.75" height="36.75" fill="white" transform="translate(5.625 5.625)"/>
</clipPath>
</defs>
</svg>
